<svg xmlns="http://www.w3.org/2000/svg" xmlns:xlink="http://www.w3.org/1999/xlink" width="500" zoomAndPan="magnify" viewBox="0 0 375 374.999991" height="500" preserveAspectRatio="xMidYMid meet" version="1.0"><defs><g/></defs><rect x="-37.5" width="450" fill="#ffffff" y="-37.499999" height="449.999989" fill-opacity="1"/><rect x="-37.5" width="450" fill="#ffffff" y="-37.499999" height="449.999989" fill-opacity="1"/><rect x="-37.5" width="450" fill="#000000" y="-37.499999" height="449.999989" fill-opacity="1"/><g fill="#e0c658" fill-opacity="1"><g transform="translate(115.111726, 205.973713)"><g><path d="M 94.140625 -97.65625 C 94.140625 -100.207031 93.234375 -102.414062 91.421875 -104.28125 C 89.609375 -106.144531 87.476562 -107.132812 85.03125 -107.25 L 54.65625 -107.25 L 54.65625 -11.5 C 54.769531 -8.738281 55.8125 -6.394531 57.78125 -4.46875 C 59.75 -2.550781 62.117188 -1.59375 64.890625 -1.59375 L 66.96875 -1.59375 L 66.96875 0 L 31.96875 0 L 31.96875 -1.59375 L 34.046875 -1.59375 C 36.816406 -1.59375 39.1875 -2.550781 41.15625 -4.46875 C 43.125 -6.394531 44.160156 -8.6875 44.265625 -11.34375 L 44.265625 -107.25 L 13.90625 -107.25 C 11.34375 -107.132812 9.179688 -106.144531 7.421875 -104.28125 C 5.671875 -102.414062 4.796875 -100.207031 4.796875 -97.65625 L 4.796875 -94.9375 L 3.203125 -94.78125 L 3.203125 -114.921875 C 4.796875 -114.273438 7.5625 -113.632812 11.5 -113 C 15.445312 -112.363281 19.070312 -112.046875 22.375 -112.046875 L 76.390625 -112.046875 C 81.617188 -112.046875 85.960938 -112.441406 89.421875 -113.234375 C 92.890625 -114.035156 94.992188 -114.597656 95.734375 -114.921875 L 95.734375 -94.78125 L 94.140625 -94.9375 Z M 94.140625 -97.65625 "/></g></g></g><g fill="#f4e477" fill-opacity="1"><g transform="translate(161.117909, 263.573414)"><g><path d="M 94.140625 -97.65625 C 94.140625 -100.207031 93.234375 -102.414062 91.421875 -104.28125 C 89.609375 -106.144531 87.476562 -107.132812 85.03125 -107.25 L 54.65625 -107.25 L 54.65625 -11.5 C 54.769531 -8.738281 55.8125 -6.394531 57.78125 -4.46875 C 59.75 -2.550781 62.117188 -1.59375 64.890625 -1.59375 L 66.96875 -1.59375 L 66.96875 0 L 31.96875 0 L 31.96875 -1.59375 L 34.046875 -1.59375 C 36.816406 -1.59375 39.1875 -2.550781 41.15625 -4.46875 C 43.125 -6.394531 44.160156 -8.6875 44.265625 -11.34375 L 44.265625 -107.25 L 13.90625 -107.25 C 11.34375 -107.132812 9.179688 -106.144531 7.421875 -104.28125 C 5.671875 -102.414062 4.796875 -100.207031 4.796875 -97.65625 L 4.796875 -94.9375 L 3.203125 -94.78125 L 3.203125 -114.921875 C 4.796875 -114.273438 7.5625 -113.632812 11.5 -113 C 15.445312 -112.363281 19.070312 -112.046875 22.375 -112.046875 L 76.390625 -112.046875 C 81.617188 -112.046875 85.960938 -112.441406 89.421875 -113.234375 C 92.890625 -114.035156 94.992188 -114.597656 95.734375 -114.921875 L 95.734375 -94.78125 L 94.140625 -94.9375 Z M 94.140625 -97.65625 "/></g></g></g></svg>